<svg width="64" height="64" viewBox="0 0 64 64" fill="none" xmlns="http://www.w3.org/2000/svg">
<rect x="2" y="2" width="60" height="60" rx="7" fill="#489FB5"/>
<rect x="6.13794" y="6.13794" width="51.7241" height="51.7241" rx="5" fill="#24525D"/>
<path d="M50.5 28.2775C50.5 26.2617 48.8576 24.6222 46.8399 24.6222H37.6435C38.3194 22.4165 39.122 18.2108 36.5151 15.6473C35.7284 14.8741 34.7273 14.4366 33.6957 14.415C32.6564 14.3903 31.7507 14.7624 31.0759 15.4826C30.7062 15.8792 30.502 16.4017 30.5047 16.9435V17.3095C30.5047 21.0724 28.7875 24.5574 25.9114 26.6303C25.0612 27.2434 24.1269 27.7309 23.1374 28.0778C23.1139 27.6355 22.9217 27.2189 22.6003 26.9137C22.2788 26.6085 21.8525 26.4378 21.4089 26.4368H16.1516C15.691 26.4373 15.2494 26.6202 14.9236 26.9454C14.5978 27.2706 14.4145 27.7115 14.4138 28.1715V48.0774C14.4144 48.5375 14.5976 48.9785 14.9234 49.3038C15.2492 49.6291 15.6909 49.8121 16.1516 49.8127H21.4099C21.8705 49.812 22.3119 49.629 22.6376 49.3038C22.9633 48.9786 23.1465 48.5378 23.1472 48.0779V47.3712C26.2119 47.888 29.3736 48.1479 32.6167 48.1479C36.2424 48.1479 39.969 47.8247 43.7705 47.1781C44.6959 47.1524 45.5748 46.7675 46.2207 46.1052C46.8666 45.4429 47.2285 44.5553 47.2296 43.6309C47.2296 43.0363 47.0806 42.4763 46.8208 41.9836C48.3039 41.5306 49.3865 40.1511 49.3865 38.5239C49.3865 37.7621 49.1483 37.0568 48.7447 36.4731C49.2784 36.1609 49.7211 35.715 50.029 35.1794C50.3369 34.6437 50.4992 34.0371 50.5 33.4195C50.5 32.4198 50.0825 31.518 49.4138 30.8725C49.758 30.5334 50.0313 30.1294 50.2178 29.6839C50.4043 29.2384 50.5002 28.7604 50.5 28.2775ZM21.0851 47.7536H16.4759V28.4958H21.0851V47.7536ZM46.9491 31.9334C47.7698 31.9334 48.438 32.6 48.438 33.42C48.438 34.2401 47.7698 34.9062 46.9491 34.9062H40.848C40.5746 34.9062 40.3123 35.0146 40.1189 35.2077C39.9256 35.4008 39.817 35.6626 39.817 35.9357C39.817 36.2087 39.9256 36.4706 40.1189 36.6637C40.3123 36.8567 40.5746 36.9652 40.848 36.9652H45.7635C46.1774 36.9656 46.5743 37.13 46.867 37.4224C47.1596 37.7147 47.3242 38.1111 47.3244 38.5244C47.3239 38.9376 47.1592 39.3337 46.8666 39.6258C46.574 39.9179 46.1772 40.0822 45.7635 40.0826H42.1822C41.9087 40.0826 41.6465 40.1911 41.4531 40.3842C41.2597 40.5772 41.1511 40.8391 41.1511 41.1121C41.1511 41.3852 41.2597 41.6471 41.4531 41.8401C41.6465 42.0332 41.9087 42.1417 42.1822 42.1417H43.6761C44.0716 42.1421 44.4508 42.2992 44.7304 42.5785C45.01 42.8578 45.1672 43.2365 45.1675 43.6314C45.167 44.0262 45.0097 44.4047 44.7301 44.6838C44.4505 44.963 44.0715 45.1201 43.6761 45.1206C43.6174 45.1206 43.5591 45.1257 43.5019 45.1355C36.3738 46.356 29.5308 46.4019 23.1472 45.2797V30.2403C24.5732 29.8265 25.9169 29.17 27.1193 28.2997C30.5304 25.8407 32.5672 21.7323 32.5672 17.3095V16.9435C32.5667 16.9243 32.5721 16.9054 32.5827 16.8894C32.8534 16.6001 33.2075 16.4622 33.6534 16.4735C34.1566 16.4838 34.6587 16.7118 35.0685 17.1149C37.6038 19.6074 35.3211 25.0407 35.2387 25.2322C35.1871 25.3465 35.1582 25.4716 35.152 25.6028C35.152 25.6162 35.1484 25.6296 35.1479 25.6425L35.1474 25.6517C35.1474 25.6867 35.1541 25.7202 35.1577 25.7547C35.1608 25.7856 35.1613 25.8165 35.167 25.8458C35.1737 25.8818 35.1861 25.9158 35.1964 25.9503C35.2057 25.9802 35.2124 26.0105 35.2242 26.0388C35.2356 26.0677 35.2515 26.0934 35.2655 26.1207C35.2825 26.1536 35.2979 26.1876 35.3186 26.2185C35.3304 26.2365 35.3454 26.252 35.3583 26.2689C35.3856 26.306 35.4134 26.3426 35.4459 26.3755C35.4552 26.3848 35.4665 26.3925 35.4758 26.4012C35.515 26.4383 35.5552 26.4733 35.6005 26.5042C35.6057 26.5078 35.6109 26.5093 35.616 26.5129C35.6634 26.5438 35.7114 26.5737 35.765 26.5968C35.9073 26.6596 36.0557 26.6844 36.2016 26.6813H46.8399C47.7214 26.6813 48.4385 27.3968 48.4385 28.277C48.4385 29.1573 47.7219 29.8738 46.8404 29.8738H40.1804C39.907 29.8738 39.6447 29.9823 39.4514 30.1754C39.258 30.3684 39.1494 30.6303 39.1494 30.9034C39.1494 31.1764 39.258 31.4383 39.4514 31.6313C39.6447 31.8244 39.907 31.9329 40.1804 31.9329H46.9486L46.9491 31.9334Z" fill="#EDE7E3"/>
</svg>
