<svg width="32" height="32" viewBox="0 0 32 32" fill="none" xmlns="http://www.w3.org/2000/svg">
<rect x="1" y="1" width="30.2322" height="30.2322" rx="7" fill="#489FB5"/>
<rect x="3.32556" y="3.32544" width="25.5811" height="25.5811" rx="5" fill="#24525D"/>
<path d="M24.92 13.6807C24.92 12.7064 24.1262 11.9139 23.1509 11.9139H18.706C19.0327 10.8478 19.4206 8.81508 18.1606 7.57605C17.7804 7.20235 17.2965 6.99087 16.7979 6.98042C16.2956 6.96847 15.8578 7.14836 15.5316 7.49643C15.353 7.68815 15.2543 7.94066 15.2556 8.20253V8.37943C15.2556 10.1982 14.4256 11.8826 13.0355 12.8845C12.6246 13.1808 12.173 13.4165 11.6947 13.5841C11.6834 13.3703 11.5905 13.169 11.4351 13.0215C11.2797 12.874 11.0737 12.7915 10.8593 12.7909H8.31827C8.09563 12.7912 7.88218 12.8796 7.72472 13.0368C7.56727 13.194 7.47866 13.4071 7.47833 13.6294V23.2506C7.4786 23.473 7.56717 23.6861 7.72464 23.8434C7.8821 24.0006 8.09559 24.089 8.31827 24.0893H10.8598C11.0824 24.089 11.2958 24.0005 11.4532 23.8434C11.6106 23.6862 11.6991 23.4731 11.6995 23.2508V22.9092C13.1808 23.159 14.7089 23.2847 16.2764 23.2847C18.0288 23.2847 19.83 23.1284 21.6674 22.8159C22.1147 22.8035 22.5395 22.6175 22.8517 22.2974C23.1638 21.9773 23.3387 21.5482 23.3393 21.1014C23.3393 20.8141 23.2673 20.5434 23.1417 20.3053C23.8586 20.0863 24.3818 19.4195 24.3818 18.6331C24.3818 18.2648 24.2667 17.924 24.0716 17.6418C24.3295 17.491 24.5435 17.2754 24.6923 17.0165C24.8411 16.7577 24.9196 16.4644 24.92 16.1659C24.92 15.6828 24.7182 15.2469 24.395 14.9349C24.5614 14.771 24.6935 14.5757 24.7836 14.3604C24.8737 14.1451 24.9201 13.914 24.92 13.6807ZM10.7028 23.0941H8.475V13.7862H10.7028V23.0941ZM23.2037 15.4477C23.6004 15.4477 23.9233 15.7699 23.9233 16.1662C23.9233 16.5625 23.6004 16.8845 23.2037 16.8845H20.2549C20.1227 16.8845 19.9959 16.9369 19.9025 17.0302C19.809 17.1236 19.7565 17.2501 19.7565 17.3821C19.7565 17.5141 19.809 17.6406 19.9025 17.734C19.9959 17.8273 20.1227 17.8797 20.2549 17.8797H22.6307C22.8307 17.8799 23.0226 17.9594 23.164 18.1007C23.3055 18.242 23.385 18.4335 23.3851 18.6333C23.3849 18.833 23.3053 19.0245 23.1638 19.1657C23.0224 19.3068 22.8307 19.3862 22.6307 19.3864H20.8997C20.7675 19.3864 20.6408 19.4389 20.5473 19.5322C20.4539 19.6255 20.4014 19.7521 20.4014 19.884C20.4014 20.016 20.4539 20.1426 20.5473 20.2359C20.6408 20.3292 20.7675 20.3817 20.8997 20.3817H21.6218C21.8129 20.3819 21.9962 20.4578 22.1314 20.5928C22.2665 20.7278 22.3425 20.9108 22.3426 21.1017C22.3424 21.2925 22.2663 21.4754 22.1312 21.6104C21.9961 21.7453 21.8129 21.8212 21.6218 21.8215C21.5934 21.8215 21.5652 21.824 21.5376 21.8287C18.0923 22.4186 14.7849 22.4407 11.6995 21.8984V14.6293C12.3887 14.4293 13.0382 14.112 13.6193 13.6914C15.268 12.5028 16.2525 10.5171 16.2525 8.37943V8.20253C16.2522 8.19326 16.2548 8.18413 16.26 8.17641C16.3908 8.03658 16.562 7.9699 16.7775 7.97538C17.0207 7.98035 17.2634 8.09057 17.4614 8.28538C18.6868 9.49009 17.5835 12.1162 17.5437 12.2087C17.5188 12.264 17.5048 12.3244 17.5018 12.3879C17.5018 12.3944 17.5001 12.4008 17.4998 12.407L17.4996 12.4115C17.4996 12.4284 17.5028 12.4446 17.5046 12.4613C17.506 12.4762 17.5063 12.4911 17.509 12.5053C17.5123 12.5227 17.5183 12.5392 17.5232 12.5558C17.5277 12.5703 17.531 12.5849 17.5367 12.5986C17.5422 12.6126 17.5499 12.625 17.5566 12.6382C17.5649 12.6541 17.5723 12.6705 17.5823 12.6855C17.588 12.6942 17.5952 12.7016 17.6015 12.7098C17.6147 12.7277 17.6281 12.7454 17.6438 12.7613C17.6483 12.7658 17.6538 12.7695 17.6583 12.7738C17.6772 12.7917 17.6967 12.8086 17.7186 12.8235C17.7211 12.8253 17.7236 12.826 17.7261 12.8278C17.749 12.8427 17.7722 12.8571 17.7981 12.8683C17.8668 12.8987 17.9386 12.9106 18.0091 12.9091H23.1509C23.577 12.9091 23.9236 13.255 23.9236 13.6804C23.9236 14.1059 23.5772 14.4522 23.1512 14.4522H19.9322C19.8 14.4522 19.6733 14.5046 19.5798 14.5979C19.4864 14.6913 19.4338 14.8178 19.4338 14.9498C19.4338 15.0818 19.4864 15.2083 19.5798 15.3017C19.6733 15.395 19.8 15.4474 19.9322 15.4474H23.2035L23.2037 15.4477Z" fill="#EDE7E3"/>
</svg>
